<?xml version="1.0" standalone="no"?>
<!DOCTYPE svg PUBLIC "-//W3C//DTD SVG 20010904//EN"
 "http://www.w3.org/TR/2001/REC-SVG-20010904/DTD/svg10.dtd">
<svg version="1.0" xmlns="http://www.w3.org/2000/svg"
 width="300.000000pt" height="300.000000pt" viewBox="0 0 300.000000 300.000000"
 preserveAspectRatio="xMidYMid meet">
<metadata>
Created by potrace 1.10, written by Peter Selinger 2001-2011
</metadata>
<g transform="translate(0.000000,300.000000) scale(0.100000,-0.100000)"
fill="#000000" stroke="none">
<path d="M1320 2974 c-227 -41 -310 -65 -450 -130 -253 -119 -473 -314 -632
-560 -77 -119 -154 -316 -189 -479 -21 -94 -24 -138 -24 -305 0 -178 3 -205
28 -315 69 -296 202 -532 417 -738 211 -204 444 -329 725 -389 145 -31 441
-33 575 -5 209 44 409 129 574 244 116 81 297 267 378 388 159 237 235 479
245 775 14 423 -129 784 -431 1086 -215 214 -435 336 -736 405 -63 15 -132 21
-270 24 -102 2 -196 2 -210 -1z m470 -35 c295 -61 541 -198 758 -421 121 -125
187 -219 262 -373 180 -367 197 -784 49 -1170 -178 -466 -604 -818 -1104 -912
-126 -24 -407 -24 -530 1 -444 89 -813 363 -1026 760 -58 109 -111 257 -141
393 -31 141 -31 434 0 576 31 140 65 235 133 372 188 381 550 667 968 765 136
32 211 39 376 35 102 -3 184 -11 255 -26z"/>
<path d="M1355 2794 c-242 -36 -414 -102 -600 -230 -268 -184 -453 -464 -526
-794 -30 -135 -33 -378 -6 -508 107 -523 500 -917 1027 -1029 63 -13 128 -18
250 -17 141 0 181 4 276 26 255 60 470 182 650 370 254 266 380 600 360 958
-19 339 -154 633 -402 871 -238 228 -521 345 -854 354 -80 2 -158 1 -175 -1z
m285 -15 c575 -71 1028 -504 1122 -1073 17 -103 15 -315 -5 -421 -85 -460
-407 -838 -847 -993 -257 -90 -573 -90 -830 0 -408 143 -726 487 -828 898
-126 504 66 1038 483 1348 260 192 590 281 905 241z"/>
<path d="M1307 2056 c-24 -138 -64 -253 -238 -693 -65 -165 -65 -165 -12 -214
71 -67 99 -65 113 9 35 179 183 561 307 793 l36 67 -29 38 c-33 43 -108 94
-139 94 -19 0 -23 -10 -38 -94z m105 52 c15 -10 41 -35 57 -55 l30 -37 -18
-30 c-11 -17 -56 -114 -101 -216 -45 -102 -88 -199 -96 -217 -33 -74 -84 -225
-109 -328 -15 -60 -29 -111 -30 -113 -7 -8 -62 29 -92 60 l-33 34 59 149 c179
453 211 541 236 670 9 50 19 96 21 103 5 16 37 8 76 -20z"/>
<path d="M1798 2122 c-104 -60 -239 -204 -391 -415 l-70 -98 53 -162 c53 -164
105 -282 134 -306 9 -8 16 -18 16 -23 0 -5 -38 -58 -84 -116 -180 -230 -276
-398 -276 -481 0 -51 35 -124 62 -129 11 -2 21 11 32 45 22 65 117 228 213
365 75 107 221 268 273 300 24 16 25 17 8 44 -9 16 -42 49 -73 74 -71 56 -132
137 -192 255 -35 68 -45 97 -40 117 9 35 172 205 255 266 70 52 173 110 230
130 57 20 55 73 -4 129 -44 41 -82 43 -146 5z m131 -7 c33 -28 62 -96 43 -103
-7 -2 -51 -23 -99 -46 -143 -70 -268 -172 -380 -308 l-56 -68 17 -44 c9 -23
43 -88 75 -142 54 -90 85 -127 205 -241 l39 -37 -28 -21 c-152 -108 -435 -504
-490 -683 -8 -29 -20 -21 -46 30 -27 53 -21 105 21 188 55 109 188 301 287
415 23 27 43 53 43 57 0 4 -10 18 -23 32 -42 45 -95 173 -160 384 l-25 82 105
143 c133 177 278 326 354 361 68 32 80 32 118 1z"/>
</g>
</svg>
